<?xml version="1.0" encoding="UTF-8" standalone="no"?><svg xmlns="http://www.w3.org/2000/svg" xmlns:xlink="http://www.w3.org/1999/xlink" fill="#ffffff" height="301.4" preserveAspectRatio="xMidYMid meet" version="1" viewBox="0.0 0.0 159.0 301.4" width="159" zoomAndPan="magnify"><g id="change1_1"><path d="M59.9037,121.0995c-3.7311-0.9968-8.3055-1.6873-13.8334-1.6873c-0.1426,0-0.2782,0.005-0.4196,0.0059 c0.5228,3.076,1.2002,6.3015,2.0552,9.673C53.7869,128.9476,58.8104,125.5533,59.9037,121.0995z" fill="inherit"/><path d="M64.8513,127.0931l4.4246-2.0963c-0.81-0.4934-1.7352-1.0043-2.7955-1.509 C66.0948,124.752,65.5534,125.9619,64.8513,127.0931z" fill="inherit"/><path d="M67.5693,93.83c0-3.4435-0.8299-6.6863-2.269-9.5717c-3.7313,1.2827-11.1139,3.6604-20.3566,5.8489 c-0.926,6.4219-1.28,14.868,0.0817,25.17c0.3483,0.0168,0.6915,0.0527,1.0439,0.0527 C57.9434,115.33,67.5693,105.7042,67.5693,93.83z" fill="inherit"/><path d="M62.455,79.9288C58.5113,75.285,52.639,72.33,46.0693,72.33c-0.6783,0-1.347,0.04-2.0093,0.1015v-2.3104V50.7609 c1.3066,0.5803,3.2297,1.2308,6.0045,1.9742c7.3157,1.9603,17.7589,3.8223,18.0476,2.7448 c0.2887-1.0775-9.6863-4.6865-17.0021-6.6467c-0.8528-0.2285-1.6251-0.4215-2.3364-0.5878 c1.1886-0.3572,2.5672-0.8183,4.1658-1.4001c8.5052-3.0957,20.0047-8.4312,19.5488-9.6839 c-0.456-1.2527-12.6946,2.0518-21.1999,5.1474c-0.9385,0.3416-1.7788,0.6636-2.5546,0.9728 c0.5088-0.6808,1.0489-1.425,1.6342-2.2609c5.1915-7.4142,11.551-18.3807,10.459-19.1453 c-1.092-0.7646-9.222,8.962-14.4135,16.3762c-0.3602,0.5144-0.6915,0.9987-1.0057,1.465c0.0082-0.5335,0.0129-1.0901,0.0129-1.6771 c0-9.7527-1.1645-23.3627-2.601-23.3627c-1.4364,0-2.6009,13.6099-2.6009,23.3627c0,0.587,0.0047,1.1436,0.0129,1.6771 c-0.3141-0.4663-0.6455-0.9506-1.0057-1.465c-5.1915-7.4142-13.3215-17.1409-14.4135-16.3762 c-1.092,0.7646,5.2675,11.731,10.459,19.1453c0.5853,0.8359,1.1254,1.5801,1.6342,2.2609 c-0.7758-0.3092-1.6161-0.6312-2.5546-0.9728c-8.5052-3.0956-20.744-6.4001-21.1999-5.1474S24.1948,43.7496,32.7,46.8453 c1.5986,0.5818,2.9772,1.043,4.1658,1.4001c-0.7113,0.1663-1.4835,0.3593-2.3364,0.5878 c-7.3157,1.9602-17.2908,5.5693-17.0021,6.6467c0.2888,1.0775,10.7319-0.7845,18.0476-2.7448 c2.7748-0.7435,4.6979-1.3939,6.0045-1.9742v19.6997v2.3465c-1.6643,0.3538-3.2476,0.9151-4.745,1.6296l-0.0655,0.0034 c-4.8692,2.2233-9.3085,6.5276-13.2473,11.7876c-0.7091,0.947-1.403,1.9229-2.0792,2.9255 C38.9813,87.2284,55.3575,82.2842,62.455,79.9288z" fill="inherit"/><path d="M45.0287,130.7584c-4.4335-16.9697-4.4768-30.3929-3.2472-39.9257c-7.2068,1.5925-15.3444,2.9944-23.6747,3.6746 c-9.243,15.9783-14.5827,34.9299-14.5827,34.9299s2.3365,0.4447,6.3167,0.9252l4.962-14.1639l-1.1613,14.5745 C21.3588,131.5147,32.7242,132.0536,45.0287,130.7584z" fill="inherit"/><path d="M19.1074,91.4189c0.0101-0.0118,0.0132-0.0269,0.0228-0.039c0.0657-0.0834,0.1176-0.1735,0.1574-0.2699 c0.0117-0.0281,0.024-0.0547,0.0333-0.0835c0.0366-0.1125,0.0602-0.2286,0.0608-0.3478c0.0001-0.0129-0.0038-0.0251-0.0042-0.0381 c-0.0021-0.0779-0.0072-0.156-0.0255-0.2334c-0.0334-0.1407-0.1262-0.5118-0.2745-1.0153 c-0.5841-1.9835-2.0741-6.1241-4.6166-7.3118c-1.0288-0.4785-2.1328-0.4541-3.1963,0.0781 c-1.8965,0.9482-1.9858,2.3574-1.8701,3.1133c0.2521,1.6479,1.9817,3.2962,3.9396,4.5339c0.7242,0.4578,1.4767,0.8598,2.201,1.1831 l-6.3757,3.9417L0,100.5928l1.209,1.957l11.3799-7.0352L2.207,107.6787l1.749,1.4922l7.0292-8.2357L19.1074,91.4189z M11.668,84.9229c-0.0181-0.1191-0.0562-0.3672,0.625-0.708c0.2363-0.1182,0.4526-0.1768,0.6636-0.1768 c0.1777,0,0.3516,0.042,0.5298,0.125c1.2119,0.5654,2.3164,2.7627,3.0259,4.7646C14.2676,87.9326,11.8394,86.041,11.668,84.9229z" fill="inherit"/><path d="M6.0127,39.958c0.8833-10.7734,7.979-20.2256,18.0776-24.0801l15.1626-5.7881V5.8672c0-1.9668,1.6001-3.5664,3.5669-3.5664 c1.9663,0,3.5664,1.5996,3.5664,3.5664v4.2227l15.1631,5.7881C71.6479,19.7324,78.7437,29.1846,79.627,39.958l1.79,21.8369 l2.292-0.1875l-1.79-21.8369c-0.9546-11.6514-8.6284-21.873-19.5493-26.041L48.686,8.5059V5.8672 C48.686,2.6318,46.0547,0,42.8198,0s-5.8667,2.6318-5.8667,5.8672v2.6387L23.27,13.7295 c-10.9209,4.168-18.5947,14.3896-19.5493,26.041l-1.79,21.8369l2.292,0.1875L6.0127,39.958z" fill="inherit"/><path d="M19.6362,163.7025c0.8613,0,1.7354-0.186,2.5654-0.5791l65.2285-30.9033l3.7637,0.9229 c1.8884,0.4633,3.7848-0.0293,5.192-1.1624l1.1635,2.0152l3.3477,5.7984l1.2871-0.7431l-3.4996-6.0615l-1.2257-2.1229 c0.4539-0.6173,0.7978-1.3312,0.9918-2.1216c0.7891-3.2183-1.1797-6.4673-4.3975-7.2563l-2.3401-0.574l-1.5929-2.7589 L71.1382,85.278l-1.2871,0.7431l18.2961,31.6898l1.5666,2.7134l-1.4956-0.3668c-1.3408-0.3286-2.752-0.1851-3.999,0.4048 l-57.6852,27.3293c0.0709-1.9327,0.078-3.7819-0.032-5.2594c1.3085,0.3365,2.5904,0.6351,3.8503,0.905l15.5972-7.3893 c-2.701-0.1568-5.2511-0.7706-7.5495-1.7576c-2.8865,0.1621-5.8239,0.252-8.7993,0.252c-4.2688,0-8.21-0.1644-11.68-0.4025 c-4.4141,8.1908-5.0293,17.9642-4.2425,24.3006c0.0009,0.007,0.0035,0.0131,0.0044,0.0201 c0.0424,0.3318,0.1172,0.6622,0.2175,0.9896c0.0146,0.0479,0.0273,0.0961,0.043,0.1434c0.076,0.2277,0.1619,0.4539,0.2673,0.6763 c0.0239,0.0504,0.056,0.0937,0.081,0.1431c0.0001,0.0001,0.0001,0.0002,0.0001,0.0004c0,0,0,0,0.0001-0.0001 C15.3439,162.4868,17.4424,163.7025,19.6362,163.7025z" fill="inherit"/><path d="M139.4121,17.6934c-11.7539,0-21.3164,9.5625-21.3164,21.3174v32.5437h-1.2524c-0.4542,0-0.8257,0.3715-0.8257,0.8257 c0,0.4541,0.3716,0.8257,0.8257,0.8257h1.2524v1.3486h-1.2524c-0.4542,0-0.8257,0.3715-0.8257,0.8257 c0,0.4541,0.3716,0.8257,0.8257,0.8257h1.2524v1.3486h-1.2524c-0.4542,0-0.8257,0.3715-0.8257,0.8257 c0,0.4541,0.3716,0.8257,0.8257,0.8257h1.2524v1.3486h-1.2524c-0.4542,0-0.8257,0.3715-0.8257,0.8257 c0,0.4541,0.3716,0.8257,0.8257,0.8257h1.2524v1.3486h-1.2524c-0.4542,0-0.8257,0.3715-0.8257,0.8257 c0,0.4541,0.3716,0.8257,0.8257,0.8257h1.2524v1.3486h-1.2524c-0.4542,0-0.8257,0.3715-0.8257,0.8257 c0,0.4541,0.3716,0.8257,0.8257,0.8257h1.2524v1.3486h-1.2524c-0.4542,0-0.8257,0.3715-0.8257,0.8257 c0,0.4541,0.3716,0.8257,0.8257,0.8257h1.2524v1.3486h-1.2524c-0.4542,0-0.8257,0.3715-0.8257,0.8257 c0,0.4541,0.3716,0.8257,0.8257,0.8257h1.2524v1.3486h-1.2524c-0.4542,0-0.8257,0.3715-0.8257,0.8257 c0,0.4541,0.3716,0.8257,0.8257,0.8257h1.2524v1.3486h-1.2524c-0.4542,0-0.8257,0.3715-0.8257,0.8257 c0,0.4541,0.3716,0.8257,0.8257,0.8257h1.2524v1.3486h-1.2524c-0.4542,0-0.8257,0.3715-0.8257,0.8257 c0,0.4541,0.3716,0.8257,0.8257,0.8257h1.2524v1.3486h-1.2524c-0.4542,0-0.8257,0.3715-0.8257,0.8257 c0,0.4541,0.3716,0.8257,0.8257,0.8257h1.2524v1.3486h-1.2524c-0.4542,0-0.8257,0.3715-0.8257,0.8257 c0,0.4541,0.3716,0.8257,0.8257,0.8257h1.2524v1.3486h-1.2524c-0.4542,0-0.8257,0.3715-0.8257,0.8257 c0,0.4541,0.3716,0.8257,0.8257,0.8257h1.2524v1.3486h-1.2524c-0.4542,0-0.8257,0.3715-0.8257,0.8257 c0,0.4541,0.3716,0.8257,0.8257,0.8257h1.2524v1.3486h-1.2524c-0.4542,0-0.8257,0.3715-0.8257,0.8257 c0,0.4541,0.3716,0.8257,0.8257,0.8257h1.2524v1.3486h-1.2524c-0.4542,0-0.8257,0.3715-0.8257,0.8257 c0,0.4541,0.3716,0.8257,0.8257,0.8257h1.2524v1.3486h-1.2524c-0.4542,0-0.8257,0.3715-0.8257,0.8257 c0,0.4541,0.3716,0.8257,0.8257,0.8257h1.2524v1.3486h-1.2524c-0.4542,0-0.8257,0.3715-0.8257,0.8257 c0,0.4541,0.3716,0.8257,0.8257,0.8257h1.2524v1.3486h-1.2524c-0.4542,0-0.8257,0.3715-0.8257,0.8257 c0,0.4541,0.3716,0.8257,0.8257,0.8257h1.2524v1.3486h-1.2524c-0.4542,0-0.8257,0.3715-0.8257,0.8257 c0,0.4541,0.3716,0.8257,0.8257,0.8257h1.2524v1.3486h-1.2524c-0.4542,0-0.8257,0.3715-0.8257,0.8257 c0,0.4541,0.3716,0.8257,0.8257,0.8257h1.2524v1.3486h-1.2524c-0.4542,0-0.8257,0.3715-0.8257,0.8257 c0,0.4541,0.3716,0.8257,0.8257,0.8257h1.2524v1.3486h-1.2524c-0.4542,0-0.8257,0.3715-0.8257,0.8257 c0,0.4541,0.3716,0.8257,0.8257,0.8257h1.2524v1.3486h-1.2524c-0.4542,0-0.8257,0.3715-0.8257,0.8257 c0,0.4541,0.3716,0.8257,0.8257,0.8257h1.2524v1.3486h-1.2524c-0.4542,0-0.8257,0.3715-0.8257,0.8257 c0,0.4541,0.3716,0.8257,0.8257,0.8257h1.2524v1.3486h-1.2524c-0.4542,0-0.8257,0.3715-0.8257,0.8257 c0,0.4541,0.3716,0.8257,0.8257,0.8257h1.2524v1.3486h-1.2524c-0.4542,0-0.8257,0.3715-0.8257,0.8257 c0,0.4541,0.3716,0.8257,0.8257,0.8257h1.2524v1.3486h-1.2524c-0.4542,0-0.8257,0.3715-0.8257,0.8257 c0,0.4541,0.3716,0.8257,0.8257,0.8257h1.2524v1.3486h-1.2524c-0.4542,0-0.8257,0.3715-0.8257,0.8257 c0,0.4541,0.3716,0.8257,0.8257,0.8257h1.2524v1.3486h-1.2524c-0.4542,0-0.8257,0.3715-0.8257,0.8257 c0,0.4541,0.3716,0.8257,0.8257,0.8257h1.2524v1.3486h-1.2524c-0.4542,0-0.8257,0.3715-0.8257,0.8257 c0,0.4541,0.3716,0.8257,0.8257,0.8257h1.2524v1.3486h-1.2524c-0.4542,0-0.8257,0.3715-0.8257,0.8257 c0,0.4541,0.3716,0.8257,0.8257,0.8257h1.2524v1.3486h-1.2524c-0.4542,0-0.8257,0.3715-0.8257,0.8257 c0,0.4541,0.3716,0.8257,0.8257,0.8257h1.2524v1.3486h-0.5536l-29.3926-16.0388c-1.3864-4.3885-4.1481-12.3979-7.8073-19.3922 l-13.8043,6.54c-1.3118,4.6348-2.9874,12.0012-2.8279,18.9674c0.1729,7.5449,3.6035,11.4521,5.8735,14.0371 c0.4092,0.4658,1.0049,1.1436,1.3306,1.6299c-2.6479,0.6514-11.625,1.3721-24.7134,1.2451 c-14.811-0.1279-22.4102-1.1904-24.6201-2.0264c1.5472-2.8568,2.6878-9.0483,3.4131-14.171l-1.8077,0.8564 c-0.4554,0.2156-0.9251,0.3763-1.402,0.5051c-0.8439,5.5565-1.9144,10.2667-3.0779,11.7596 c-0.5854,0.751-0.6499,1.6611-0.1733,2.4336c0.1373,0.2229,0.3382,0.5427,0.9468,0.9011 c0.2158,5.066,3.4544,82.6885,0.5234,107.2405l-0.0303,0.2529l0.0552,0.249c0.4468,2.0176,2.1815,3.5586,4.5612,4.7412 c0.8912,4.6097,4.9429,8.0919,9.8133,8.0919c3.4396,0,6.4733-1.7382,8.2729-4.3834c1.5057,0.0918,2.7137,0.1307,3.4273,0.146 c0.6965-0.0151,1.8813-0.0535,3.3621-0.1438c1.7994,2.644,4.832,4.3812,8.2717,4.3812c4.8666,0,8.9207-3.4817,9.8129-8.0909 c2.3796-1.1826,4.1151-2.724,4.5621-4.7422l0.0552-0.249l-0.0303-0.2529c-2.8012-23.4675,0.0337-95.4214,0.4778-106.153 c0.761-0.3102,1.3627-0.781,1.4943-1.5941c0.2759-1.707-0.9043-3.0508-2.2705-4.6064c-2.1021-2.3936-4.981-5.6719-5.1289-12.126 c-0.1674-7.3139,1.8846-15.3334,3.1594-19.5663c2.3518,4.5507,5.0662,11.021,7.5022,19.3066 c0.4487,1.5264,1.4858,2.8125,2.8823,3.5742l35.6631,19.46c0.0336,0.0183,0.0687,0.0302,0.1025,0.0478 c0.0027,0.4518,0.3723,0.8211,0.8248,0.8211h1.2524v1.3486h-1.2524c-0.4542,0-0.8257,0.3715-0.8257,0.8257 c0,0.4541,0.3716,0.8257,0.8257,0.8257h1.2524v1.3486h-1.2524c-0.4542,0-0.8257,0.3715-0.8257,0.8257 c0,0.4541,0.3716,0.8257,0.8257,0.8257h1.2524v1.3486h-1.2524c-0.4542,0-0.8257,0.3715-0.8257,0.8257 c0,0.4541,0.3716,0.8257,0.8257,0.8257h1.2524v1.3486h-1.2524c-0.4542,0-0.8257,0.3715-0.8257,0.8257 c0,0.4541,0.3716,0.8257,0.8257,0.8257h1.2524v1.3486h-1.2524c-0.4542,0-0.8257,0.3715-0.8257,0.8257 c0,0.4541,0.3716,0.8257,0.8257,0.8257h1.2524v1.3486h-1.2524c-0.4542,0-0.8257,0.3715-0.8257,0.8257 c0,0.4541,0.3716,0.8257,0.8257,0.8257h1.2524v1.3486h-1.2524c-0.4542,0-0.8257,0.3715-0.8257,0.8257 c0,0.4541,0.3716,0.8257,0.8257,0.8257h1.2524v1.3486h-1.2524c-0.4542,0-0.8257,0.3715-0.8257,0.8257 c0,0.4541,0.3716,0.8257,0.8257,0.8257h1.2524v1.3486h-1.2524c-0.4542,0-0.8257,0.3716-0.8257,0.8257s0.3716,0.8257,0.8257,0.8257 h1.2524v1.3486h-1.2524c-0.4542,0-0.8257,0.3716-0.8257,0.8257s0.3716,0.8257,0.8257,0.8257h1.2524v1.3486h-1.2524 c-0.4542,0-0.8257,0.3716-0.8257,0.8257s0.3716,0.8257,0.8257,0.8257h1.2524v1.3486h-1.2524c-0.4542,0-0.8257,0.3716-0.8257,0.8257 s0.3716,0.8257,0.8257,0.8257h1.2524v1.3486h-1.2524c-0.4542,0-0.8257,0.3716-0.8257,0.8257s0.3716,0.8257,0.8257,0.8257h1.2524 v1.3486h-1.2524c-0.4542,0-0.8257,0.3716-0.8257,0.8257s0.3716,0.8257,0.8257,0.8257h1.2524v1.3486h-1.2524 c-0.4542,0-0.8257,0.3716-0.8257,0.8257s0.3716,0.8257,0.8257,0.8257h1.2524v1.3486h-1.2524c-0.4542,0-0.8257,0.3716-0.8257,0.8257 s0.3716,0.8257,0.8257,0.8257h1.2524v1.3486h-1.2524c-0.4542,0-0.8257,0.3716-0.8257,0.8257s0.3716,0.8257,0.8257,0.8257h1.2524 v1.3486h-1.2524c-0.4542,0-0.8257,0.3716-0.8257,0.8257s0.3716,0.8257,0.8257,0.8257h1.2524v1.3486h-1.2524 c-0.4542,0-0.8257,0.3716-0.8257,0.8257s0.3716,0.8257,0.8257,0.8257h1.2524v1.3486h-1.2524c-0.4542,0-0.8257,0.3716-0.8257,0.8257 s0.3716,0.8257,0.8257,0.8257h1.2524v1.3486h-1.2524c-0.4542,0-0.8257,0.3716-0.8257,0.8257s0.3716,0.8257,0.8257,0.8257h1.2524 v1.3486h-1.2524c-0.4542,0-0.8257,0.3716-0.8257,0.8257s0.3716,0.8257,0.8257,0.8257h1.2524v24.5088 c-2.0856-2.1761-6.1183-6.1639-7.0873-5.5181c-1.2022,0.8015,1.5148,9.0571,3.9219,11.0381 c-2.4486,1.4376-4.1008,4.0917-4.1008,7.1306c0,2.2151,0.88,4.2249,2.3027,5.7109h-2.4541v3h17.835v-3h-2.8711 c4.8536-4.5415,6.1985-16.6172-4.5464-17.0332v-92.4335c1.219-0.5065,2.2799-1.4163,2.9614-2.6651 c1.5869-2.9092,0.5156-6.5537-2.3931-8.1406l-0.5684-0.3101V39.0107c0-10.1006,8.2168-18.3174,18.3164-18.3174 c7.3564,0,13.9795,4.3994,16.8726,11.209l2.7607-1.1738C155.6812,22.8105,147.9746,17.6934,139.4121,17.6934z M66.2883,290.6099 c-0.393-4.7295-2.2997-29.5991-1.9075-62.1606l-2-0.0234c-0.4168,34.5856,1.7538,60.522,1.9673,62.9779 c-4.8627,1.6984-12.4232,2.6075-18.2456,2.736c-8.918-0.1934-21.7944-2.1914-23.0869-6.0322 c2.7999-24.2134-0.0101-94.8661-0.4883-106.251c3.1885,0.7252,9.0403,1.3999,19.9766,1.6319 c2.1274,0.0459,4.2568,0.0674,6.3467,0.0674c8.5717,0,16.4575-0.3671,20.7313-0.9803 c-0.5537,13.3527-3.2047,81.7818-0.4584,105.532C68.8051,289.0532,67.7806,289.8867,66.2883,290.6099z M113.5405,277.2058 c-0.456,0-0.8257-0.3696-0.8257-0.8257s0.3697-0.8257,0.8257-0.8257c0.4561,0,0.8257,0.3696,0.8257,0.8257 S113.9966,277.2058,113.5405,277.2058z M119.1001,285.0947c2.9062,0,5.271,2.3643,5.271,5.2705s-2.3647,5.2705-5.271,5.2705 s-5.2705-2.3643-5.2705-5.2705S116.1938,285.0947,119.1001,285.0947z" fill="inherit"/><circle cx="29.651" cy="190.674" fill="inherit" r="2.147"/><circle cx="31.797" cy="216.05" fill="inherit" r="2.147"/><circle cx="42.586" cy="202.839" fill="inherit" r="2.147"/><path d="M44.0726,224.9673c-1.1856,0-2.1468,0.9612-2.1468,2.1467c0,1.1857,0.9612,2.1469,2.1468,2.1469 c1.1857,0,2.1468-0.9612,2.1468-2.1469C46.2194,225.9285,45.2583,224.9673,44.0726,224.9673z" fill="inherit"/><path d="M31.7974,234.8755c-1.1857,0-2.1468,0.9612-2.1468,2.1467c0,1.1858,0.9611,2.1469,2.1468,2.1469 c1.1856,0,2.1468-0.9611,2.1468-2.1469C33.9442,235.8367,32.983,234.8755,31.7974,234.8755z" fill="inherit"/><circle cx="31.797" cy="262.398" fill="inherit" r="2.147"/><path d="M42.091,249.4626c-1.1857,0-2.1468,0.9612-2.1468,2.1467c0,1.1858,0.9611,2.1469,2.1468,2.1469 c1.1856,0,2.1468-0.9611,2.1468-2.1469C44.2378,250.4238,43.2766,249.4626,42.091,249.4626z" fill="inherit"/><circle cx="38.128" cy="279.848" fill="inherit" r="2.147"/><path d="M50.4579,234.27c-1.1856,0-2.1468,0.9612-2.1468,2.1467c0,1.1857,0.9612,2.1469,2.1468,2.1469 c1.1857,0,2.1468-0.9612,2.1468-2.1469C52.6047,235.2312,51.6436,234.27,50.4579,234.27z" fill="inherit"/><circle cx="50.018" cy="265.261" fill="inherit" r="2.147"/><circle cx="57.394" cy="248.087" fill="inherit" r="2.147"/><circle cx="57.504" cy="279.793" fill="inherit" r="2.147"/><circle cx="52.66" cy="190.343" fill="inherit" r="2.147"/><path d="M50.403,211.1508c-1.1857,0-2.1468,0.9611-2.1468,2.1469c0,1.1855,0.9611,2.1467,2.1468,2.1467 c1.1856,0,2.1468-0.9612,2.1468-2.1467C52.5497,212.1118,51.5886,211.1508,50.403,211.1508z" fill="inherit"/><circle cx="62.678" cy="198.986" fill="inherit" r="2.147"/><circle cx="31.797" cy="173.004" fill="inherit" r="2.147"/><circle cx="40.219" cy="163.426" fill="inherit" r="2.147"/><circle cx="60.201" cy="174.821" fill="inherit" r="2.147"/><circle cx="48.642" cy="171.848" fill="inherit" r="2.147"/><circle cx="56.733" cy="158.252" fill="inherit" r="2.147"/><circle cx="63.559" cy="215.554" fill="inherit" r="2.147"/></g></svg>